<svg id="visual" viewBox="0 0 900 600" width="900" height="600" xmlns="http://www.w3.org/2000/svg" xmlns:xlink="http://www.w3.org/1999/xlink" version="1.1"><rect x="0" y="0" width="900" height="600" fill="#2a2b27"></rect><path d="M0 229L50 322L100 272L150 297L200 311L250 317L300 293L350 274L400 304L450 280L500 301L550 251L600 323L650 245L700 313L750 219L800 271L850 256L900 327L900 601L850 601L800 601L750 601L700 601L650 601L600 601L550 601L500 601L450 601L400 601L350 601L300 601L250 601L200 601L150 601L100 601L50 601L0 601Z" fill="#562c2c"></path><path d="M0 301L50 279L100 268L150 336L200 326L250 251L300 265L350 297L400 348L450 327L500 343L550 250L600 288L650 343L700 284L750 341L800 338L850 236L900 296L900 601L850 601L800 601L750 601L700 601L650 601L600 601L550 601L500 601L450 601L400 601L350 601L300 601L250 601L200 601L150 601L100 601L50 601L0 601Z" fill="#502d27"></path><path d="M0 343L50 375L100 371L150 305L200 324L250 392L300 306L350 321L400 279L450 343L500 353L550 313L600 352L650 302L700 390L750 326L800 387L850 342L900 330L900 601L850 601L800 601L750 601L700 601L650 601L600 601L550 601L500 601L450 601L400 601L350 601L300 601L250 601L200 601L150 601L100 601L50 601L0 601Z" fill="#4a2e24"></path><path d="M0 378L50 401L100 358L150 407L200 370L250 381L300 317L350 383L400 349L450 323L500 405L550 413L600 386L650 397L700 330L750 343L800 325L850 380L900 343L900 601L850 601L800 601L750 601L700 601L650 601L600 601L550 601L500 601L450 601L400 601L350 601L300 601L250 601L200 601L150 601L100 601L50 601L0 601Z" fill="#442f22"></path><path d="M0 380L50 431L100 404L150 411L200 401L250 428L300 447L350 375L400 452L450 422L500 413L550 415L600 400L650 395L700 433L750 370L800 376L850 369L900 437L900 601L850 601L800 601L750 601L700 601L650 601L600 601L550 601L500 601L450 601L400 601L350 601L300 601L250 601L200 601L150 601L100 601L50 601L0 601Z" fill="#3e2f22"></path><path d="M0 455L50 473L100 408L150 461L200 419L250 417L300 408L350 442L400 479L450 482L500 458L550 436L600 410L650 403L700 440L750 465L800 469L850 402L900 456L900 601L850 601L800 601L750 601L700 601L650 601L600 601L550 601L500 601L450 601L400 601L350 601L300 601L250 601L200 601L150 601L100 601L50 601L0 601Z" fill="#382f23"></path><path d="M0 444L50 495L100 479L150 513L200 463L250 444L300 513L350 455L400 466L450 479L500 453L550 450L600 448L650 455L700 455L750 467L800 453L850 496L900 497L900 601L850 601L800 601L750 601L700 601L650 601L600 601L550 601L500 601L450 601L400 601L350 601L300 601L250 601L200 601L150 601L100 601L50 601L0 601Z" fill="#332e25"></path><path d="M0 485L50 486L100 491L150 528L200 504L250 488L300 538L350 543L400 511L450 544L500 505L550 501L600 494L650 487L700 508L750 515L800 526L850 518L900 506L900 601L850 601L800 601L750 601L700 601L650 601L600 601L550 601L500 601L450 601L400 601L350 601L300 601L250 601L200 601L150 601L100 601L50 601L0 601Z" fill="#2f2d27"></path><path d="M0 528L50 542L100 558L150 538L200 564L250 545L300 531L350 566L400 549L450 570L500 535L550 566L600 562L650 566L700 559L750 557L800 528L850 552L900 572L900 601L850 601L800 601L750 601L700 601L650 601L600 601L550 601L500 601L450 601L400 601L350 601L300 601L250 601L200 601L150 601L100 601L50 601L0 601Z" fill="#2c2c29"></path></svg>